<svg xmlns="http://www.w3.org/2000/svg" xmlns:xlink="http://www.w3.org/1999/xlink" version="1.0" width="463.674" height="626.856" id="svg2"><defs id="defs4"><radialGradient cx="408.622" cy="297.297" r="134.862" fx="408.622" fy="297.297" id="radialGradient2965" xlink:href="#linearGradient2959" gradientUnits="userSpaceOnUse" gradientTransform="matrix(-.13222 .75318 1.63858 .28765 -115.39 -60.143)"/><radialGradient cx="437.007" cy="260.823" r="146.575" fx="437.007" fy="260.823" id="radialGradient2975" xlink:href="#linearGradient2977" gradientUnits="userSpaceOnUse" gradientTransform="matrix(-1.15717 -.30784 -.19938 .7495 850.795 207.14)"/><radialGradient cx="408.622" cy="297.297" r="134.862" fx="408.622" fy="297.297" id="radialGradient2991" xlink:href="#linearGradient2959" gradientUnits="userSpaceOnUse" gradientTransform="matrix(.13222 .75318 -1.63858 .28765 841.738 -56.19)"/><radialGradient cx="362.308" cy="290.226" r="16.575" fx="362.308" fy="290.226" id="radialGradient3006" xlink:href="#linearGradient3000" gradientUnits="userSpaceOnUse" gradientTransform="matrix(1 0 0 2.34959 0 -391.685)"/><radialGradient cx="362.308" cy="290.226" r="16.575" fx="362.308" fy="290.226" id="radialGradient3034" xlink:href="#linearGradient3000" gradientUnits="userSpaceOnUse" gradientTransform="matrix(1 0 0 1.83548 0 -242.477)"/><radialGradient cx="363.83" cy="254.307" r="10.133" fx="363.83" fy="254.307" id="radialGradient3038" xlink:href="#linearGradient3000" gradientUnits="userSpaceOnUse" gradientTransform="matrix(1 0 0 .805 0 49.592)"/><radialGradient cx="363.83" cy="254.307" r="10.133" fx="363.83" fy="254.307" id="radialGradient3040" xlink:href="#linearGradient3000" gradientUnits="userSpaceOnUse" gradientTransform="matrix(1 0 0 .805 0 49.592)"/><radialGradient cx="363.49" cy="256.455" r="10.133" fx="363.49" fy="256.455" id="radialGradient3044" xlink:href="#linearGradient3000" gradientUnits="userSpaceOnUse" gradientTransform="matrix(1 0 0 .805 0 49.592)"/><radialGradient cx="363.49" cy="256.455" r="10.133" fx="363.49" fy="256.455" id="radialGradient3046" xlink:href="#linearGradient3000" gradientUnits="userSpaceOnUse" gradientTransform="matrix(1 0 0 .805 0 49.592)"/><radialGradient cx="384.578" cy="238.005" r="8.651" fx="384.578" fy="238.005" id="radialGradient3058" xlink:href="#linearGradient3052" gradientUnits="userSpaceOnUse" gradientTransform="matrix(1 0 0 .9429 0 13.59)"/><radialGradient cx="384.578" cy="238.005" r="8.651" fx="384.578" fy="238.005" id="radialGradient3066" xlink:href="#linearGradient3060" gradientUnits="userSpaceOnUse" gradientTransform="matrix(1 0 0 .9429 0 13.59)"/><radialGradient cx="384.578" cy="238.005" r="8.651" fx="384.578" fy="238.005" id="radialGradient3072" xlink:href="#linearGradient3052" gradientUnits="userSpaceOnUse" gradientTransform="matrix(1 0 0 .9429 0 13.59)"/><radialGradient cx="437.007" cy="260.823" r="146.575" fx="437.007" fy="260.823" id="radialGradient3088" xlink:href="#linearGradient2977" gradientUnits="userSpaceOnUse" gradientTransform="matrix(1.15717 -.30784 .19938 .7495 -122.325 209.117)"/><radialGradient cx="384.578" cy="238.005" r="8.651" fx="384.578" fy="238.005" id="radialGradient3406" xlink:href="#linearGradient3060" gradientUnits="userSpaceOnUse" gradientTransform="matrix(1 0 0 .9429 0 13.59)"/><radialGradient xlink:href="#linearGradient3000" id="radialGradient2623" gradientUnits="userSpaceOnUse" gradientTransform="matrix(1 0 0 .805 0 49.592)" cx="363.83" cy="254.307" fx="363.83" fy="254.307" r="10.133"/><radialGradient xlink:href="#linearGradient3000" id="radialGradient2625" gradientUnits="userSpaceOnUse" gradientTransform="matrix(1 0 0 .805 0 49.592)" cx="363.83" cy="254.307" fx="363.83" fy="254.307" r="10.133"/><radialGradient xlink:href="#linearGradient3000" id="radialGradient2627" gradientUnits="userSpaceOnUse" gradientTransform="matrix(1 0 0 .805 0 49.592)" cx="363.49" cy="256.455" fx="363.49" fy="256.455" r="10.133"/><radialGradient xlink:href="#linearGradient3000" id="radialGradient2629" gradientUnits="userSpaceOnUse" gradientTransform="matrix(1 0 0 .805 0 49.592)" cx="363.49" cy="256.455" fx="363.49" fy="256.455" r="10.133"/><radialGradient xlink:href="#linearGradient3000" id="radialGradient2631" gradientUnits="userSpaceOnUse" gradientTransform="matrix(1 0 0 2.34959 0 -391.685)" cx="362.308" cy="290.226" fx="362.308" fy="290.226" r="16.575"/><radialGradient xlink:href="#linearGradient3000" id="radialGradient2633" gradientUnits="userSpaceOnUse" gradientTransform="matrix(1 0 0 1.83548 0 -242.477)" cx="362.308" cy="290.226" fx="362.308" fy="290.226" r="16.575"/><radialGradient xlink:href="#linearGradient3060" id="radialGradient2635" gradientUnits="userSpaceOnUse" gradientTransform="matrix(1 0 0 .9429 0 13.59)" cx="384.578" cy="238.005" fx="384.578" fy="238.005" r="8.651"/><radialGradient xlink:href="#linearGradient3052" id="radialGradient2637" gradientUnits="userSpaceOnUse" gradientTransform="matrix(1 0 0 .9429 0 13.59)" cx="384.578" cy="238.005" fx="384.578" fy="238.005" r="8.651"/><radialGradient xlink:href="#linearGradient3060" id="radialGradient2639" gradientUnits="userSpaceOnUse" gradientTransform="matrix(1 0 0 .9429 0 13.59)" cx="384.578" cy="238.005" fx="384.578" fy="238.005" r="8.651"/><radialGradient xlink:href="#linearGradient3052" id="radialGradient2641" gradientUnits="userSpaceOnUse" gradientTransform="matrix(1 0 0 .9429 0 13.59)" cx="384.578" cy="238.005" fx="384.578" fy="238.005" r="8.651"/><radialGradient xlink:href="#linearGradient2959" id="radialGradient2670" gradientUnits="userSpaceOnUse" gradientTransform="matrix(-.13222 .75318 1.63858 .28765 -115.39 -60.143)" cx="408.622" cy="297.297" fx="408.622" fy="297.297" r="134.862"/><radialGradient xlink:href="#linearGradient2959" id="radialGradient2673" gradientUnits="userSpaceOnUse" gradientTransform="matrix(.13222 .75318 -1.63858 .28765 841.738 -56.19)" cx="408.622" cy="297.297" fx="408.622" fy="297.297" r="134.862"/><radialGradient xlink:href="#linearGradient2977" id="radialGradient2676" gradientUnits="userSpaceOnUse" gradientTransform="matrix(-1.15717 -.30784 -.19938 .7495 850.795 207.14)" cx="437.007" cy="260.823" fx="437.007" fy="260.823" r="146.575"/><radialGradient xlink:href="#linearGradient2977" id="radialGradient2679" gradientUnits="userSpaceOnUse" gradientTransform="matrix(1.15717 -.30784 .19938 .7495 -122.325 209.117)" cx="437.007" cy="260.823" fx="437.007" fy="260.823" r="146.575"/><linearGradient id="linearGradient3116"><stop id="stop3118" style="stop-color:#cdd3cc;stop-opacity:1" offset="0"/><stop id="stop3124" style="stop-color:#8db5af;stop-opacity:1" offset=".5"/><stop id="stop3120" style="stop-color:#b0b5af;stop-opacity:1" offset="1"/></linearGradient><linearGradient id="linearGradient3060"><stop id="stop3062" style="stop-color:#fbd17b;stop-opacity:1" offset="0"/><stop id="stop3064" style="stop-color:#a97e0e;stop-opacity:1" offset="1"/></linearGradient><linearGradient id="linearGradient3052"><stop id="stop3054" style="stop-color:#7c6e2d;stop-opacity:1" offset="0"/><stop id="stop3056" style="stop-color:#7c6e2d;stop-opacity:0" offset="1"/></linearGradient><linearGradient id="linearGradient3000"><stop id="stop3002" style="stop-color:#9aba9d;stop-opacity:1" offset="0"/><stop id="stop3008" style="stop-color:#9aba77;stop-opacity:1" offset=".5"/><stop id="stop3004" style="stop-color:#698a61;stop-opacity:.9921568" offset="1"/></linearGradient><linearGradient id="linearGradient2977"><stop id="stop2979" style="stop-color:#f3d9ad;stop-opacity:1" offset="0"/><stop id="stop2981" style="stop-color:#c5b094;stop-opacity:.95686275" offset=".874"/><stop id="stop2983" style="stop-color:#705533;stop-opacity:1" offset="1"/></linearGradient><linearGradient id="linearGradient2959"><stop id="stop2961" style="stop-color:#f3d9ad;stop-opacity:1" offset="0"/><stop id="stop2967" style="stop-color:#c5b094;stop-opacity:.95686275" offset=".787"/><stop id="stop2963" style="stop-color:#705533;stop-opacity:1" offset="1"/></linearGradient><linearGradient x1="351.245" y1="469.099" x2="373.881" y2="469.099" id="linearGradient3202" xlink:href="#linearGradient3116" gradientUnits="userSpaceOnUse"/><linearGradient xlink:href="#linearGradient3116" id="linearGradient2643" gradientUnits="userSpaceOnUse" x1="351.245" y1="469.099" x2="373.881" y2="469.099"/><linearGradient xlink:href="#linearGradient3116" id="linearGradient2690" gradientUnits="userSpaceOnUse" x1="351.245" y1="469.099" x2="373.881" y2="469.099"/><filter id="filter3158" color-interpolation-filters="sRGB"><feGaussianBlur id="feGaussianBlur3160" stdDeviation=".166"/></filter><filter id="filter3182" color-interpolation-filters="sRGB"><feGaussianBlur id="feGaussianBlur3184" stdDeviation=".166"/></filter><filter id="filter3186" color-interpolation-filters="sRGB"><feGaussianBlur id="feGaussianBlur3188" stdDeviation=".166"/></filter></defs><g id="g3120" transform="rotate(-90 253.523 424.14)" style="fill:#eaeaea;fill-opacity:1;stroke-width:2;stroke-miterlimit:4;stroke-opacity:1"><g id="g2783" style="fill:#eaeaea;fill-opacity:1;stroke:#000;stroke-width:2;stroke-miterlimit:4;stroke-opacity:1;"><path d="M458.623 236.174c-6.402 5.242-14.415 7.75-22.012 10.697l-23.791 35.37c-1.462 1.753-3.816.316-5.515-.257-11.623-4.276-12.31-6.701-23.87-11.126-3.739-1.64-7.308-3.7-10.45-6.317-.92-1.43 1.506-3.066 2.62-1.923 8.32 2.953 15.654 8.051 23.835 11.328 6.682 3.102 3.7 1.526 10.055 5.3 1.134-.308.403-1.837.872-2.659l25.071-29.95c5.903-3.078 12.429-4.818 18.14-8.293 1.525-.874 3.016-1.81 4.42-2.87.289.128.53.4.625.7z" id="path3090" style="fill:#eaeaea;fill-opacity:1;fill-rule:evenodd;stroke:#000;stroke-width:2;stroke-linecap:butt;stroke-linejoin:miter;stroke-miterlimit:4;stroke-opacity:1;"/><path d="M458.623 236.174c-6.402 5.242-14.415 7.75-22.012 10.697l-23.791 35.37c-1.462 1.753-3.816.316-5.515-.257-11.623-4.276-12.31-6.701-23.87-11.126-3.739-1.64-7.308-3.7-10.45-6.317-.92-1.43 1.506-3.066 2.62-1.923 8.32 2.953 15.654 8.051 23.835 11.328 6.682 3.102 3.7 1.526 10.055 5.3 1.134-.308.403-1.837.872-2.659l25.071-29.95c5.903-3.078 12.429-4.818 18.14-8.293 1.525-.874 3.016-1.81 4.42-2.87.289.128.53.4.625.7z" id="path3092" style="fill:#eaeaea;fill-opacity:1;fill-rule:evenodd;stroke:#000;stroke-width:1;stroke-linecap:butt;stroke-linejoin:miter;stroke-miterlimit:4;stroke-opacity:1;"/></g><g id="g2723" style="fill-opacity:1;stroke-width:4;stroke-miterlimit:4;stroke-opacity:1"><path d="M461.067 279.571c-9.248-4.157-11.804-5.664-18.024-8.495l-34.994 27.686c-1.883 1.288-3.758-.734-5.237-1.748-10.023-7.274-10.025-9.795-19.946-17.195-3.152-2.596-6.026-5.549-8.34-8.92-.497-1.627 2.284-2.542 3.045-1.14 7.203 5.104 12.875 12.004 19.858 17.382 5.587 4.802 3.145 2.475 8.235 7.834 1.176.012.887-1.658 1.562-2.321l36.21-24.07 14.37 8.146c1.705-.426 3.01 2.69 4.649 2.051.243.202-1.398.475-1.388.79z" id="path3096" style="fill-opacity:1;fill-rule:evenodd;stroke-width:4;stroke-linecap:butt;stroke-linejoin:miter;stroke-miterlimit:4;stroke-opacity:1"/></g><g id="g2602" style="fill:#eaeaea;fill-opacity:1;stroke:#000;stroke-width:1;stroke-miterlimit:4;stroke-opacity:1;"><path d="M274.969 245.409c10.03-1.487 12.899-2.242 19.654-3.276l26.15 36.157c1.462 1.752 3.815.315 5.514-.258 11.623-4.276 12.31-6.701 23.87-11.125 3.739-1.641 7.308-3.702 10.45-6.317.92-1.43-1.506-3.067-2.62-1.924-8.32 2.953-15.653 8.051-23.835 11.328-6.682 3.102-3.7 1.526-10.055 5.3-1.134-.308-.403-1.837-.872-2.659l-28.302-33.007-16.043 3.933c-1.526-.873-3.628 1.77-5.032.71-.289.128 1.216.837 1.12 1.138z" id="path3094" style="fill:#eaeaea;fill-opacity:1;fill-rule:evenodd;stroke:#000;stroke-width:1;stroke-linecap:butt;stroke-linejoin:miter;stroke-miterlimit:4;stroke-opacity:1;"/></g><g id="g2809" style="fill:#eaeaea;fill-opacity:1;stroke:#000;stroke-width:1;stroke-miterlimit:4;stroke-opacity:1;"><path d="M268.932 277.535c9.248-4.158 11.803-5.665 18.023-8.496l34.994 27.686c1.884 1.289 3.758-.734 5.237-1.747 10.023-7.275 10.025-9.796 19.947-17.196 3.151-2.595 6.026-5.548 8.34-8.92.496-1.626-2.285-2.541-3.046-1.139-7.203 5.104-12.875 12.004-19.858 17.381-5.587 4.802-3.145 2.475-8.235 7.835-1.175.011-.887-1.659-1.562-2.322l-36.21-24.07-14.37 8.147c-1.705-.426-3.01 2.69-4.648 2.05-.243.203 1.398.476 1.388.79z" id="path3076" style="fill:#eaeaea;fill-opacity:1;fill-rule:evenodd;stroke:#000;stroke-width:1;stroke-linecap:butt;stroke-linejoin:miter;stroke-miterlimit:4;stroke-opacity:1;"/></g><g id="g2508" style="fill:#eaeaea;fill-opacity:1;stroke:#000;stroke-width:1;stroke-miterlimit:4;stroke-opacity:1;"><path d="M399.588 181.652c-.325 8.268-3.763 15.928-6.596 23.568 8.398 9.479 17.872 17.961 25.956 27.726.342 2.256-2.295 3.065-3.85 3.956-10.91 5.862-22.807 9.598-33.786 15.314-3.707 1.709-7.617 3.013-11.659 3.63-1.68-.26-1.295-3.162.299-3.237 7.728-4.267 16.408-6.374 24.287-10.323 6.754-2.943 13.223-6.586 20.262-8.839.522-1.053-1.107-1.52-1.41-2.416-6.834-8.516-14.012-16.746-21.053-25.089 1.612-6.458 4.639-12.496 5.826-19.075.358-1.721.646-3.458.784-5.212.288-.13.652-.131.94-.003z" id="path2530" style="fill:#eaeaea;fill-opacity:1;fill-rule:evenodd;stroke:#000;stroke-width:1;stroke-linecap:butt;stroke-linejoin:miter;stroke-miterlimit:4;stroke-opacity:1;"/></g><g transform="scale(-1 1) rotate(-3.364 26.767 12609.51)" id="g2482" style="fill:#eaeaea;fill-opacity:1;stroke:#000;stroke-width:1;stroke-miterlimit:4;stroke-opacity:1;"><path d="M401.584 181.77c-.324 8.268-5.759 15.81-8.592 23.45 8.398 9.479 17.872 17.961 25.956 27.726.342 2.256-2.295 3.065-3.85 3.956-10.91 5.862-22.807 9.598-33.786 15.314-3.707 1.709-7.617 3.013-11.659 3.63-1.68-.26-1.295-3.162.299-3.237 7.728-4.267 16.408-6.374 24.287-10.323 6.754-2.943 13.223-6.586 20.262-8.839.522-1.053-1.107-1.52-1.41-2.416-6.834-8.516-14.012-16.746-21.053-25.089 1.612-6.458 6.635-12.379 7.823-18.957.358-1.722.646-3.459.784-5.213.287-.13.651-.13.94-.003z" id="path3084" style="fill:#eaeaea;fill-opacity:1;fill-rule:evenodd;stroke:#000;stroke-width:1;stroke-linecap:butt;stroke-linejoin:miter;stroke-miterlimit:4;stroke-opacity:1;"/></g><g id="g3408" style="fill:#eaeaea;fill-opacity:1;stroke:#000;stroke-width:2;stroke-miterlimit:4;stroke-opacity:1;"><path style="fill:#eaeaea;fill-opacity:1;fill-rule:evenodd;stroke:#000;stroke-width:2;stroke-linecap:butt;stroke-linejoin:miter;stroke-miterlimit:4;stroke-opacity:1;;stroke-dashoffset:0;marker:none;visibility:visible;display:inline;overflow:visible" id="path3036" transform="translate(-.864 -.617)" d="M361.5 244.594c-2.416 1.298-3.53 4.042-5.393 5.956-1.91 1.46-1.82 4.274-1.013 6.325 1.251 3.12 4.48 5.275 7.854 5.115 4.414.303 9.266-2.49 10.177-7.021.028-3.753-2.59-6.875-5.26-9.201-1.971-.896-4.194-1.425-6.365-1.174z"/><path style="fill:#eaeaea;fill-opacity:1;fill-rule:evenodd;stroke:#000;stroke-width:2;stroke-linecap:butt;stroke-linejoin:miter;stroke-miterlimit:4;stroke-opacity:1;" id="path2997" d="M363.282 260.302c-6.807.355-18.336.443-16.932 11.76 1.052 8.378 1.881 16.708 3.741 24.987 1.002 8.945 2.405 19.496 12.318 22.461 9.723 3.754 10.918-9.963 12.575-16.941 1.469-8.991 3.584-18.962 3.318-28.053.965-15.892-6.85-13.386-15.02-14.214z"/><path style="fill:#eaeaea;fill-opacity:1;fill-rule:evenodd;stroke:#000;stroke-width:1;stroke-linecap:butt;stroke-linejoin:miter;stroke-miterlimit:4;stroke-opacity:1;;stroke-dashoffset:0;marker:none;visibility:visible;display:inline;overflow:visible" id="path3068" transform="translate(-4.176 -2.097)" d="M392.729 238.005c0 4.23-3.65 7.657-8.151 7.657-4.502 0-8.151-3.428-8.151-7.657 0-4.228 3.65-7.657 8.15-7.657 4.503 0 8.152 3.429 8.152 7.657z"/><path style="fill:#eaeaea;fill-opacity:1;fill-rule:evenodd;stroke:#000;stroke-width:1;stroke-linecap:butt;stroke-linejoin:miter;stroke-miterlimit:4;stroke-opacity:1;;stroke-dashoffset:0;marker:none;visibility:visible;display:inline;overflow:visible" id="path3048" transform="translate(-36.293 -2.587)" d="M392.729 238.005c0 4.23-3.65 7.657-8.151 7.657-4.502 0-8.151-3.428-8.151-7.657 0-4.228 3.65-7.657 8.15-7.657 4.503 0 8.152 3.429 8.152 7.657z"/><path style="fill:#eaeaea;fill-opacity:1;fill-rule:evenodd;stroke:#000;stroke-width:2;stroke-linecap:butt;stroke-linejoin:miter;stroke-miterlimit:4;stroke-opacity:1;;stroke-dashoffset:0;marker:none;visibility:visible;display:inline;overflow:visible" id="path3010" transform="translate(-.37 -23.094)" d="M362.875 246.688c-5.926.798-10 7.239-8.906 12.968-.146 1.635.334 3.239.906 4.75 3.622-.304 6.138 3.21 9.688 3.188 2.24-1.927 5.29-2.231 8.125-2.313 1.066-2.318.041-4.908.421-7.334-.084-3.915-1.313-8.517-5.161-10.316-1.582-.722-3.335-1.071-5.073-.944z"/></g><g id="g3103" style="fill:#eaeaea;fill-opacity:1;stroke:#000;stroke-width:2;stroke-miterlimit:4;stroke-opacity:1;"><path style="fill:#eaeaea;fill-opacity:1;fill-rule:evenodd;stroke:#000;stroke-width:2;stroke-linecap:butt;stroke-linejoin:miter;stroke-miterlimit:4;stroke-opacity:1;" id="path3098" d="m356.296 314.908-2.699 263.091c-3.776 17.894-1.346 30.536 3.398 41.219 1.424 7.274 1.67 3.143 1.683.332l6.594.317c.051 7.612 1.27.04 1.503.05 8.003-14.311 8.526-28.265 2.699-41.918-4.046-87.969.833-177.475 1.493-263.092h-14.671z"/><path style="fill:#eaeaea;fill-opacity:1;fill-rule:evenodd;stroke:#000;stroke-width:2;stroke-linecap:round;stroke-linejoin:round;stroke-miterlimit:4;stroke-opacity:1;" id="path3208" d="M354.108 524.337v2.034c5.93-1.359 9.959-.92 13.798.03v-1.715c-5.833-1.819-7.987-1.177-13.798-.349z"/><path style="fill:#eaeaea;fill-opacity:1;fill-rule:evenodd;stroke:#000;stroke-width:2;stroke-linecap:round;stroke-linejoin:round;stroke-miterlimit:4;stroke-opacity:1;" id="path3210" d="M354.605 477.311v2.034c5.93-1.359 9.462-1.03 13.3-.08l.001-1.715c-5.833-1.819-7.49-1.067-13.301-.239z"/><path style="fill:#eaeaea;fill-opacity:1;fill-rule:evenodd;stroke:#000;stroke-width:2;stroke-linecap:round;stroke-linejoin:round;stroke-miterlimit:4;stroke-opacity:1;" id="path3212" d="M355.082 426.169v2.033c5.93-1.358 9.683-.864 13.522.086v-1.715c-5.833-1.819-7.71-1.233-13.522-.404z"/><path style="fill:#eaeaea;fill-opacity:1;fill-rule:evenodd;stroke:#000;stroke-width:2;stroke-linecap:round;stroke-linejoin:round;stroke-miterlimit:4;stroke-opacity:1;" id="path3214" d="M355.836 380.825v2.033c5.93-1.359 9.959-.92 13.798.031v-1.715c-5.833-1.82-7.987-1.178-13.798-.35z"/><path style="fill:#eaeaea;fill-opacity:1;fill-rule:evenodd;stroke:#000;stroke-width:2;stroke-linecap:round;stroke-linejoin:round;stroke-miterlimit:4;stroke-opacity:1;" id="path3152" d="M356.377 335.443v2.033c5.93-1.358 9.96-.92 13.798.031v-1.715c-5.832-1.819-7.987-1.178-13.798-.35z"/><path style="fill:#eaeaea;fill-opacity:1;stroke:#000;stroke-width:2;stroke-linecap:round;stroke-linejoin:round;stroke-miterlimit:4;stroke-opacity:1;" id="path3194" d="M353.695 578.68c5.657-.56 9.31-1.577 15.562.26"/><path style="fill:#eaeaea;fill-opacity:1;stroke:#000;stroke-width:2;stroke-linecap:round;stroke-linejoin:round;stroke-miterlimit:4;stroke-opacity:1;" id="path3192" d="M353.52 608.184c5.657.3 11.214-.471 17.676.788"/><path style="fill:#eaeaea;fill-opacity:1;stroke:#000;stroke-width:2;stroke-linecap:round;stroke-linejoin:round;stroke-miterlimit:4;stroke-opacity:1;" id="path3126" d="M351.814 595.177c6.937-.687 13.475-1.916 21.4.855"/></g><g id="g3114" style="fill:#eaeaea;fill-opacity:1;stroke:#000;stroke-width:2;stroke-miterlimit:4;stroke-opacity:1;"><path d="M641.144 230.684c-5.633-1.192-11.324-1.905-17.136-1.617 1.113 2.375.578 6.345 3.71 6.533 2.822.232 10.514 1.498 13.25 1.078 1.125-.881 1.977-2.87.946-5.535a2.856 2.856 0 0 0-.77-.459zm-266.858 74.535c2.17-3.069-1.924-11.215.556-13.756 36.702-21.449 95.44-28.49 103.562-28.914 42.463-17.86 167.562-56.408 186.597-16.549 3.892 8.149.239 18.701-3.673 26.84-36.26 47.063-109.387 69.206-129.597 69.58-46.956 4.711-90.552-12.967-131.485-28.907-8.132-2.856-18.553-3.872-25.96-8.294z" id="ala_dreta_1" style="fill-rule:evenodd;stroke:#000;stroke-width:2;stroke-linecap:butt;stroke-linejoin:miter;stroke-miterlimit:4;stroke-opacity:1;"/><path d="M87.326 228.708c5.633-1.192 11.324-1.905 17.137-1.617-1.114 2.375-.579 6.345-3.71 6.533-2.822.232-10.515 1.498-13.25 1.078-1.125-.881-1.977-2.87-.947-5.535.23-.195.493-.345.77-.459zm266.859 74.535c-2.171-3.069 1.923-11.215-.556-13.756-36.703-21.449-95.44-28.49-103.563-28.914-42.462-17.86-167.561-56.408-186.597-16.549-3.891 8.149-.238 18.701 3.674 26.84 36.259 47.063 109.386 69.206 129.596 69.58 46.956 4.711 90.552-12.967 131.486-28.907 8.131-2.856 18.552-3.872 25.96-8.294z" id="ala_esquerra_1" style="fill-rule:evenodd;stroke:#000;stroke-width:2;stroke-linecap:butt;stroke-linejoin:miter;stroke-miterlimit:4;stroke-opacity:1;"/><path d="M626.402 379.253c-4.659-3.382-9.566-6.352-14.992-8.457.05 2.623-.81 6.548 1.973 7.995 2.484 1.362 5.435 1.343 8.104 2.075 1.65.197 5.87 2.235 5.431-.88-.13-.271-.309-.516-.516-.733zm-255.568-59.732.782-9.117c26.187 4.337 101.117 33.474 109.155 34.925 87.015 12.457 161.091 16.838 159.253 64.074-.351 9.023-8.74 16.535-16.07 21.81-39.47 33.448-114.015 15.741-131.973 6.378-43.485-18.333-76.433-53.675-104.748-87.26-5.774-6.399-13.496-25.898-16.399-30.81z" id="ala_dreta_2" style="fill-rule:evenodd;stroke:#000;stroke-width:2;stroke-linecap:butt;stroke-linejoin:miter;stroke-miterlimit:4;stroke-opacity:1;"/><path d="M99.946 375.302c4.66-3.383 9.566-6.353 14.992-8.458-.05 2.623.81 6.548-1.973 7.995-2.483 1.362-5.434 1.343-8.104 2.075-1.649.197-5.87 2.235-5.431-.88.13-.271.31-.516.516-.732zm255.568-59.733-.782-9.117c-26.187 4.337-101.116 33.474-109.155 34.925-87.015 12.457-161.09 16.838-159.253 64.074.352 9.023 8.74 16.535 16.07 21.81 39.47 33.448 114.016 15.741 131.973 6.378 43.485-18.333 76.434-53.675 104.748-87.26 5.774-6.399 13.497-25.898 16.4-30.81z" id="ala_esquerra_2" style="fill-rule:evenodd;stroke:#000;stroke-width:2;stroke-linecap:butt;stroke-linejoin:miter;stroke-miterlimit:4;stroke-opacity:1;"/></g></g></svg>