<?xml version="1.0" encoding="UTF-8"?><!DOCTYPE svg PUBLIC "-//W3C//DTD SVG 1.1//EN" "http://www.w3.org/Graphics/SVG/1.1/DTD/svg11.dtd"><svg xmlns="http://www.w3.org/2000/svg" xmlns:xlink="http://www.w3.org/1999/xlink"><defs><clipPath id="clip054353"><path fill="#fff" d="M0 0h60v60H0z"/></clipPath><radialGradient id="paint0_radial" cx="0" cy="0" r="1" gradientUnits="userSpaceOnUse" gradientTransform="rotate(92.291 -2.306 8.462) scale(47.4825 101.128)"><stop offset="0" stop-color="#35C1F1"/><stop offset=".11" stop-color="#34C1ED"/><stop offset=".23" stop-color="#2FC2DF"/><stop offset=".31" stop-color="#2BC3D2"/><stop offset=".67" stop-color="#36C752"/></radialGradient><clipPath id="clip05462"><path fill="#fff" d="M0 0h60v60H0z"/></clipPath><filter id="filter0_d" x=".284" y=".853" width="66" height="74.284" filterUnits="userSpaceOnUse" color-interpolation-filters="sRGB"><feFlood flood-opacity="0" result="BackgroundImageFix"/><feColorMatrix in="SourceAlpha" type="matrix" values="0 0 0 0 0 0 0 0 0 0 0 0 0 0 0 0 0 0 127 0"/><feOffset/><feGaussianBlur stdDeviation="6.5"/><feColorMatrix type="matrix" values="0 0 0 0 0.168627 0 0 0 0 0.223529 0 0 0 0 0.266667 0 0 0 0.5 0"/><feBlend mode="normal" in2="BackgroundImageFix" result="effect1_dropShadow"/><feBlend mode="normal" in="SourceGraphic" in2="effect1_dropShadow" result="shape"/></filter><filter id="filter0_d" x=".284" y=".284" width="66" height="74.284" filterUnits="userSpaceOnUse" color-interpolation-filters="sRGB"><feFlood flood-opacity="0" result="BackgroundImageFix"/><feColorMatrix in="SourceAlpha" type="matrix" values="0 0 0 0 0 0 0 0 0 0 0 0 0 0 0 0 0 0 127 0"/><feOffset/><feGaussianBlur stdDeviation="6.5"/><feColorMatrix type="matrix" values="0 0 0 0 0.168627 0 0 0 0 0.223529 0 0 0 0 0.266667 0 0 0 0.5 0"/><feBlend mode="normal" in2="BackgroundImageFix" result="effect1_dropShadow"/><feBlend mode="normal" in="SourceGraphic" in2="effect1_dropShadow" result="shape"/></filter><filter id="filter0_d" x="3.228" y="3.228" width="43.545" height="50.867" filterUnits="userSpaceOnUse" color-interpolation-filters="sRGB"><feFlood flood-opacity="0" result="BackgroundImageFix"/><feColorMatrix in="SourceAlpha" type="matrix" values="0 0 0 0 0 0 0 0 0 0 0 0 0 0 0 0 0 0 127 0"/><feOffset/><feGaussianBlur stdDeviation="2.047"/><feColorMatrix type="matrix" values="0 0 0 0 0.168627 0 0 0 0 0.223529 0 0 0 0 0.266667 0 0 0 0.5 0"/><feBlend mode="normal" in2="BackgroundImageFix" result="effect1_dropShadow"/><feBlend mode="normal" in="SourceGraphic" in2="effect1_dropShadow" result="shape"/></filter></defs><symbol id="accordion"><path display="var(--is-visible--non-desktop)" d="M7.333 1L4.666 3 2 1" fill="none" stroke="currentColor" stroke-width="1.5" stroke-linecap="round" stroke-linejoin="round"/><path display="var(--is-visible--only-desktop)" d="M1 1l4 3 4-3" fill="none" stroke="currentColor" stroke-width="1.5" stroke-linecap="round" stroke-linejoin="round"/></symbol><symbol id="arrow-down-small"><path d="M1 1l4 3 4-3" stroke="currentColor" fill="none" stroke-width="1.5" stroke-linecap="round" stroke-linejoin="round"/></symbol><symbol id="arrow-down"><path d="M2 2l4 3 4-3" fill="none" stroke="currentColor" display="var(--is-visible--non-desktop)" stroke-width="1.5" stroke-linecap="round" stroke-linejoin="round"/><path d="M1 1l5 4 5-4" fill="none" stroke="currentColor" display="var(--is-visible--only-desktop)" stroke-width="1.5" stroke-linecap="round" stroke-linejoin="round"/></symbol><symbol id="arrow-left-small" viewBox="0 0 5 10"><path d="M4 9L1 5l3-4" stroke="currentColor" stroke-width="1.5" stroke-linecap="round" stroke-linejoin="round" fill="none"/></symbol><symbol id="arrow-left"><path display="var(--is-visible--only-desktop)" d="M6 13L1 7l5-6" stroke="currentColor" fill="none" stroke-width="1.5" stroke-linecap="round" stroke-linejoin="round"/><path display="var(--is-visible--non-desktop)" d="M5 11L2 7l3-4" stroke="currentColor" fill="none" stroke-width="1.5" stroke-linecap="round" stroke-linejoin="round"/></symbol><symbol id="arrow-northeast" viewBox="0 0 14 14"><path d="M12.5 9V1m0 0h-8m8 0L1 12.5" fill="none" stroke="currentColor" stroke-width="1.5" stroke-linecap="round" stroke-linejoin="round"/></symbol><symbol id="arrow-right-small"><path d="M1 7l3-3-3-3" stroke="currentColor" fill="none" stroke-width="1.5" stroke-linecap="round" stroke-linejoin="round"/></symbol><symbol id="arrow-right-xl"><path d="M3 14l3-4-3-4" display="var(--is-visible--non-desktop)" stroke="currentColor" fill="none" stroke-width="1.5" stroke-linecap="round" stroke-linejoin="round"/><path d="M1 19l8-9-8-9" display="var(--is-visible--only-desktop)" stroke="currentColor" fill="none" stroke-width="1.5" stroke-linecap="round" stroke-linejoin="round"/></symbol><symbol id="arrow-right"><path display="var(--is-visible--non-desktop)" d="M2 11l3.333-4L2 3" stroke="currentColor" fill="none" stroke-width="1.5" stroke-linecap="round" stroke-linejoin="round"/><path display="var(--is-visible--only-desktop)" d="M1 13l5-6-5-6" stroke="currentColor" fill="none" stroke-width="1.5" stroke-linecap="round" stroke-linejoin="round"/></symbol><symbol id="arrow-up-small"><path d="M1 4l4-3 4 3" stroke="currentColor" fill="none" stroke-width="1.5" stroke-linecap="round" stroke-linejoin="round"/></symbol><symbol id="camera" viewBox="0 0 15 13"><path d="M7.5 9a2 2 0 100-4 2 2 0 000 4z" stroke="currentColor" stroke-width="1.5" stroke-miterlimit="10" stroke-linecap="round" stroke-linejoin="round" fill="none"/><path d="M13.5 3h-3l-1-2h-4l-1 2h-3v9h12V3z" stroke="currentColor" stroke-width="1.5" stroke-miterlimit="10" stroke-linecap="round" stroke-linejoin="round" fill="none"/></symbol><symbol id="chrome"><g clip-path="url(#clip054353)" fill="#fff"><path d="M7.244 10.455C21.19-5.775 47.05-2.572 56.714 16.387c-6.806.004-17.46-.003-23.231 0-4.185 0-6.889-.093-9.814 1.448-3.439 1.811-6.037 5.167-6.941 9.112L7.244 10.455z"/><path d="M20.02 30.002c0 5.502 4.474 9.975 9.971 9.975 5.498 0 9.971-4.473 9.971-9.975 0-5.5-4.473-9.975-9.97-9.975-5.502-.003-9.972 4.474-9.972 9.975z"/><path d="M33.858 43.06c-5.595 1.66-12.146-.18-15.731-6.375a8397.707 8397.707 0 01-13.26-23.063C-6.653 31.277 3.273 55.333 24.183 59.44l9.675-16.38z"/><path d="M39.25 20.023c4.662 4.335 5.678 11.355 2.52 16.797-2.377 4.102-9.97 16.916-13.65 23.118 21.544 1.328 37.25-19.785 30.154-39.918l-19.023.003z"/></g></symbol><symbol id="clip"><path fill="none" display="var(--is-visible--non-desktop)" d="M15.344 9.907l-4.353 4.438a3.496 3.496 0 01-2.485 1.042c-.93 0-1.823-.375-2.484-1.042A3.636 3.636 0 015 11.812c0-.949.367-1.859 1.022-2.533l4.485-4.572A2.444 2.444 0 0112.222 4c.64 0 1.255.253 1.715.707.445.469.693 1.096.693 1.748 0 .653-.248 1.28-.693 1.749L9.76 12.462a1.276 1.276 0 01-.924.403 1.256 1.256 0 01-.923-.403 1.302 1.302 0 01-.395-.941 1.323 1.323 0 01.395-.942l4-4.169" stroke="currentColor" stroke-width="1.5" stroke-miterlimit="10" stroke-linecap="round" stroke-linejoin="round"/><path fill="none" display="var(--is-visible--only-desktop)" d="M18.209 10.078L11.387 16.9a5.531 5.531 0 01-7.785 0v0a5.531 5.531 0 010-7.786l7.028-7.027a3.869 3.869 0 015.375 0v0a3.87 3.87 0 010 5.375l-6.546 6.544a2 2 0 01-2.894 0v0a2 2 0 010-2.894l6.27-6.407" stroke="currentColor" stroke-width="1.5" stroke-miterlimit="10" stroke-linecap="round" stroke-linejoin="round"/></symbol><symbol id="close-small"><path d="M6.829 6.828L1.172 1.172M1.171 6.828l5.657-5.656" stroke="currentColor" stroke-width="1.5" stroke-linecap="round" stroke-linejoin="round"/></symbol><symbol id="close"><path d="M15 15L1 1M1 15L15 1" fill="none" stroke="currentColor" display="var(--is-visible--only-desktop)" stroke-width="1.5" stroke-linecap="round" stroke-linejoin="round"/><path d="M13.5 13.5L3 3M3 13.5L13.5 3" fill="none" stroke="currentColor" display="var(--is-visible--non-desktop)" stroke-width="1.5" stroke-linecap="round" stroke-linejoin="round"/></symbol><symbol id="down"><path d="M1 7l3 3m0 0l3-3m-3 3V1" fill="none" stroke="currentColor" stroke-width="1.5" stroke-linecap="round" stroke-linejoin="round"/></symbol><symbol id="edge"><g clip-path="url(#clip05462)"><path d="M54.152 44.658c-.8.418-1.625.787-2.47 1.104a23.874 23.874 0 01-8.414 1.514c-11.09 0-20.752-7.63-20.752-17.419a7.378 7.378 0 013.851-6.4c-10.031.421-12.61 10.874-12.61 16.998 0 17.316 15.96 19.072 19.398 19.072 1.854 0 4.65-.54 6.328-1.07l.307-.102A30.079 30.079 0 0055.4 45.98a.937.937 0 00-1.248-1.322z" fill="#2B3944"/><path opacity=".5" d="M54.152 44.658c-.8.418-1.625.787-2.47 1.104a23.874 23.874 0 01-8.414 1.514c-11.09 0-20.752-7.63-20.752-17.419a7.378 7.378 0 013.851-6.4c-10.031.421-12.61 10.874-12.61 16.998 0 17.316 15.96 19.072 19.398 19.072 1.854 0 4.65-.54 6.328-1.07l.307-.102A30.079 30.079 0 0055.4 45.98a.937.937 0 00-1.248-1.322z" fill="#fff"/><path d="M24.776 56.583a18.565 18.565 0 01-5.33-5.002 18.92 18.92 0 016.921-28.125c.732-.344 1.98-.968 3.642-.937a7.58 7.58 0 016.022 3.047 7.471 7.471 0 011.49 4.373c0-.049 5.733-18.656-18.75-18.656-10.289 0-18.75 9.764-18.75 18.33A30.504 30.504 0 002.86 42.738a30 30 0 0036.651 15.73 17.708 17.708 0 01-14.714-1.876l-.021-.009z" fill="#2B3944"/><path opacity=".7" d="M24.776 56.583a18.565 18.565 0 01-5.33-5.002 18.92 18.92 0 016.921-28.125c.732-.344 1.98-.968 3.642-.937a7.58 7.58 0 016.022 3.047 7.471 7.471 0 011.49 4.373c0-.049 5.733-18.656-18.75-18.656-10.289 0-18.75 9.764-18.75 18.33A30.504 30.504 0 002.86 42.738a30 30 0 0036.651 15.73 17.708 17.708 0 01-14.714-1.876l-.021-.009z" fill="#fff"/><path d="M35.697 34.89c-.19.245-.773.585-.773 1.326 0 .611.398 1.2 1.106 1.694 3.37 2.344 9.724 2.035 9.74 2.035a13.96 13.96 0 007.095-1.958 14.386 14.386 0 007.133-12.393c.06-5.253-1.875-8.745-2.658-10.292C52.373 5.588 41.653 0 29.995 0a30 30 0 00-30 29.578c.113-8.564 8.625-15.48 18.75-15.48.82 0 5.499.08 9.844 2.36 3.83 2.01 5.836 4.439 7.23 6.846 1.449 2.5 1.707 5.66 1.707 6.919 0 1.258-.643 3.124-1.829 4.666z" fill="url(#paint0_radial)"/><path d="M35.697 34.89c-.19.245-.773.585-.773 1.326 0 .611.398 1.2 1.106 1.694 3.37 2.344 9.724 2.035 9.74 2.035a13.96 13.96 0 007.095-1.958 14.386 14.386 0 007.133-12.393c.06-5.253-1.875-8.745-2.658-10.292C52.373 5.588 41.653 0 29.995 0a30 30 0 00-30 29.578c.113-8.564 8.625-15.48 18.75-15.48.82 0 5.499.08 9.844 2.36 3.83 2.01 5.836 4.439 7.23 6.846 1.449 2.5 1.707 5.66 1.707 6.919 0 1.258-.643 3.124-1.829 4.666z" fill="#fff"/></g></symbol><symbol id="ellipse"><circle opacity=".15" cx="70" cy="70" r="69.5" stroke="#2B3944"/></symbol><symbol id="facebook"><path d="M17.647 0H2.353A2.36 2.36 0 000 2.353v15.294A2.36 2.36 0 002.353 20h8.758v-6.047H9.044v-2.694h2.067V9.906a3.566 3.566 0 013.5-3.706h1.904v3.035h-1.704a.521.521 0 00-.577.612v1.412h2.281v2.694h-2.28V20h3.412A2.36 2.36 0 0020 17.647V2.353A2.36 2.36 0 0017.647 0z" fill="currentColor"/></symbol><symbol id="firefox"><path d="M57.85 19.899a28.706 28.706 0 00-1.144-2.444l-.007-.013a26.964 26.964 0 00-.117-.219l-.013-.025a28.34 28.34 0 00-.115-.21l-.017-.03a25.468 25.468 0 00-.114-.205l-.018-.032a27.69 27.69 0 00-.117-.205l-.013-.023a28.93 28.93 0 00-.54-.898l-.1-.158-.05-.08-.09-.138-.062-.097-.084-.128a39.32 39.32 0 00-.388-.572 30.91 30.91 0 00-.238-.337l-.09-.125-.072-.1-.098-.132-.068-.092a31.024 31.024 0 00-.11-.146l-.057-.077a29.4 29.4 0 00-2.998-3.344 23.575 23.575 0 00-2.255-1.985 20.774 20.774 0 00-1.503-1.149 19.626 19.626 0 00-3.028-1.797c-.27-.137-.541-.27-.815-.399-2.146-1.011-4.388-1.81-6.705-2.306a29.435 29.435 0 00-.928-.183 28.878 28.878 0 00-5.429-.487 30.16 30.16 0 00-6.067.6c-4.262.872-8.01 2.662-10.38 4.9l.01-.006-.01.01c.005-.004.011-.01.018-.014l.015-.01-.012.01.032-.02c1.774-1.035 4.22-1.872 5.97-2.301a25.192 25.192 0 01.49-.115l.118-.026c.227-.05.46-.097.696-.142l.074-.014.226-.041c7.753-1.375 16.02.876 21.776 6.234 1.237 1.152 2.347 2.44 3.246 3.86 3.672 5.794 3.325 13.077.462 17.373-2.127 3.191-6.68 6.185-10.93 6.153l.258.011a11.595 11.595 0 01-.434-.017c-2.024-.118-3.776-.577-5.255-1.28-6.745-3.202-7.79-11.457-2.986-15.43-1.58-.33-4.549.317-6.616 3.317-1.854 2.69-1.75 6.848-.605 9.797-.696-1.42-1.206-2.864-1.473-4.609-1.447-9.49 4.931-17.617 10.974-19.903.145-.055.29-.106.434-.155-1.3-1.101-3.363-1.743-5.766-1.853-3.555-.162-7.852.843-11.511 3.251-.198.13-.394.264-.588.403l-.002.002c-.1.071-.2.144-.298.217l-.062.046c-.096.072-.192.145-.287.219l-.049.038c-.09.07-.179.141-.267.213l-.033.027c-.095.077-.19.156-.283.235l-.053.044a20.009 20.009 0 00-.568.504l-.034.03-.275.26-.029.028c-.187.181-.37.365-.55.553l-.02.021c-2.167 2.271-3.776 5.047-4.755 8.185.145-1.763.678-4.15 1.695-6.743l.001-.004c.042-.107.085-.215.13-.323l.01-.025c.041-.103.084-.206.127-.31l.017-.04.128-.3.022-.05a30.06 30.06 0 01.288-.642l.027-.06c.045-.097.09-.194.137-.291l.03-.061c.046-.097.093-.195.141-.292l.028-.058.15-.297.025-.05.148-.286.015-.03c-.692.348-1.447.946-2.194 1.702-1.496 1.513-2.962 3.658-3.833 5.696C.714 23.29-.012 27.185 0 31.082c.004 1.174.074 2.348.212 3.509l.02.178c.035.296.069.591.108.885l.008.064C2.764 49.505 15.101 60 29.96 60 46.55 60 60 46.914 60 30.773c0-3.843-.763-7.513-2.15-10.874z" fill="#fff"/></symbol><symbol id="instagram"><path d="M10 1.802c2.67 0 2.986.01 4.04.058.976.045 1.505.207 1.858.344.466.182.8.398 1.15.748.35.35.566.683.747 1.15.137.353.3.882.345 1.857.048 1.054.058 1.37.058 4.04 0 2.671-.01 2.987-.058 4.042-.045.975-.208 1.504-.345 1.857-.181.466-.398.8-.748 1.15-.35.35-.683.566-1.15.747-.352.137-.881.3-1.856.345-1.055.048-1.371.058-4.041.058-2.67 0-2.987-.01-4.041-.058-.975-.045-1.504-.208-1.857-.345a3.102 3.102 0 01-1.15-.748 3.092 3.092 0 01-.748-1.15c-.137-.352-.3-.881-.344-1.856-.048-1.055-.058-1.371-.058-4.041 0-2.67.01-2.986.058-4.041.045-.975.207-1.504.344-1.857.182-.467.398-.8.748-1.15.35-.35.683-.567 1.15-.748.353-.137.882-.3 1.857-.344 1.055-.048 1.37-.058 4.04-.058zM10 0C7.284 0 6.943.012 5.877.06 4.813.11 4.086.278 3.449.525A4.897 4.897 0 001.68 1.68a4.898 4.898 0 00-1.154 1.77C.278 4.086.11 4.813.06 5.877.012 6.943 0 7.284 0 10s.012 3.056.06 4.123c.049 1.064.218 1.79.465 2.427a4.897 4.897 0 001.154 1.771 4.9 4.9 0 001.77 1.154c.637.247 1.364.416 2.428.465 1.067.048 1.407.06 4.123.06s3.057-.012 4.123-.06c1.065-.049 1.792-.218 2.428-.465a4.897 4.897 0 001.77-1.154 4.9 4.9 0 001.154-1.77c.247-.637.417-1.364.465-2.428.049-1.067.06-1.407.06-4.123s-.011-3.057-.06-4.123c-.048-1.064-.218-1.792-.465-2.428a4.897 4.897 0 00-1.153-1.77A4.9 4.9 0 0016.55.524C15.914.278 15.187.109 14.123.06 13.056.012 12.716 0 10 0z" fill="currentColor"/><path d="M10 4.865a5.135 5.135 0 100 10.27 5.135 5.135 0 000-10.27zm0 8.468a3.333 3.333 0 110-6.666 3.333 3.333 0 010 6.666zM15.338 5.862a1.2 1.2 0 100-2.4 1.2 1.2 0 000 2.4z" fill="currentColor"/></symbol><symbol id="linkedin"><path d="M17.647 0H2.353A2.36 2.36 0 000 2.353v15.294A2.36 2.36 0 002.353 20h1.73v-8.059h2.705V20h1.497c0-.753.031-7.341 0-8.059h2.706v1.153a2.688 2.688 0 012.438-1.341c1.78 0 3.115 1.153 3.115 3.659V20h1.103A2.36 2.36 0 0020 17.647V2.353A2.36 2.36 0 0017.647 0zM5.434 10.823h-.022a1.397 1.397 0 01-1.494-1.4 1.53 1.53 0 111.516 1.4zm7.032 3.06a1.484 1.484 0 00-1.388.988c-.07.212-.1.435-.09.658V20h2.848v-4.282c0-1.095-.39-1.836-1.365-1.836h-.005z" fill="currentColor"/></symbol><symbol id="logo" viewBox="0 0 194 24"><path d="M174.759 5.9h-5.728l-7.332 11.971h4.697l4.754-8.706.688 4.697h-2.635l.401 2.806h2.635l.171 1.203h4.755L174.759 5.9zM153.623 5.9l-2.291 11.971h4.41l1.776-9.165 6.301-.057.515-2.75h-10.711zM183.21 13.861c.057.86.859 1.203 2.348 1.203 1.662 0 2.578-.343 2.635-1.203.058-.63-.63-.859-2.004-.859h-2.177l.573-2.75h1.947c1.432 0 2.291-.114 2.291-.858 0-.516-.687-.745-2.004-.745-1.089 0-1.776.172-2.005.63h-5.041c.688-2.406 3.093-3.38 7.504-3.38 4.353 0 6.472.745 6.472 2.635 0 1.604-1.031 2.693-2.577 2.979 1.26.286 1.89.917 1.89 2.005 0 3.15-3.093 4.582-8.134 4.582-4.467 0-6.644-.974-6.644-3.38 0-.286.057-.515.057-.859h4.869zM98.921 5.9h-5.728L85.862 17.87h4.697l4.754-8.706.687 4.697h-2.635l.401 2.806h2.692l.172 1.203h4.754L98.921 5.9zM147.208 5.9h-5.728l-7.332 11.971h4.697l4.754-8.706.687 4.697h-2.634l.4 2.806h2.693l.171 1.203h4.697L147.208 5.9zM123.78 5.9l.401 2.75h3.38l-1.776 9.221h4.411l1.775-9.222h4.296l.516-2.75H123.78zM82.253 5.9l-.86 4.64h-5.842l.917-4.64H72L69.709 17.87h4.41l.917-4.525h5.785l-.86 4.525h4.469L86.663 5.9h-4.41zM115.418 7.962h3.265c2.749 0 4.009 1.088 4.009 2.978 0 2.921-2.176 4.754-5.556 4.754h-3.265l-.458 2.234h-4.411l.459-2.234h-3.265c-2.75 0-4.01-1.203-4.01-3.15 0-2.978 2.119-4.582 5.499-4.582h3.265l.401-2.005h4.41l-.343 2.005zm-4.869 2.52h-1.661c-1.375 0-2.12.344-2.12 1.661 0 .687.573.917 1.662.917h1.603l.516-2.578zm3.895 2.578h1.604c1.374 0 2.176-.344 2.176-1.662 0-.687-.572-.916-1.661-.916h-1.604l-.515 2.578z" fill="currentColor" display="var(--is-visible--non-desktop)"/><path fill-rule="evenodd" clip-rule="evenodd" d="M15.98 0H48v7.962L36.029 15.98H48V24H16L8.02 12.029V24H0V0h8.02l7.96 12.029V0zM24 8.02v7.96l12.029-7.96H24z" fill="currentColor" display="var(--is-visible--non-desktop)"/><path d="M174.759 5.9h-5.728l-7.332 11.971h4.697l4.754-8.706.688 4.697h-2.635l.401 2.806h2.635l.172 1.203h4.754L174.759 5.9zM153.623 5.9l-2.291 11.971h4.41l1.776-9.165 6.301-.057.515-2.75h-10.711zM183.21 13.862c.057.859.859 1.202 2.349 1.202 1.661 0 2.577-.343 2.634-1.202.058-.63-.63-.86-2.004-.86h-2.177l.573-2.749h1.947c1.432 0 2.291-.115 2.291-.86 0-.515-.687-.744-2.004-.744-1.089 0-1.776.172-2.005.63h-5.041c.688-2.405 3.093-3.38 7.504-3.38 4.353 0 6.472.745 6.472 2.636 0 1.603-1.031 2.692-2.577 2.978 1.26.287 1.89.917 1.89 2.005 0 3.15-3.093 4.582-8.134 4.582-4.467 0-6.644-.974-6.644-3.38 0-.286.057-.515.057-.858h4.869zM98.921 5.9h-5.728L85.862 17.87h4.697l4.754-8.706.687 4.697h-2.635l.401 2.806h2.692l.172 1.203h4.754L98.921 5.9zM147.208 5.9h-5.728l-7.332 11.971h4.697l4.754-8.706.687 4.697h-2.634l.401 2.806h2.692l.171 1.203h4.697L147.208 5.9zM123.78 5.9l.401 2.75h3.38l-1.776 9.221h4.411l1.775-9.222h4.296l.516-2.75H123.78zM82.253 5.9l-.86 4.64h-5.842l.917-4.64H72L69.709 17.87h4.41l.917-4.525h5.785l-.86 4.525h4.469L86.663 5.9h-4.41zM115.418 7.962h3.265c2.749 0 4.009 1.088 4.009 2.978 0 2.922-2.176 4.755-5.556 4.755h-3.265l-.458 2.233h-4.411l.459-2.234h-3.265c-2.75 0-4.01-1.202-4.01-3.15 0-2.978 2.12-4.582 5.499-4.582h3.265l.401-2.005h4.41l-.343 2.005zm-4.869 2.52h-1.661c-1.375 0-2.119.344-2.119 1.661 0 .688.572.917 1.661.917h1.603l.516-2.578zm3.895 2.578h1.604c1.374 0 2.176-.344 2.176-1.661 0-.688-.572-.917-1.661-.917h-1.604l-.515 2.578z" fill="currentColor" display="var(--is-visible--only-desktop)"/><path fill-rule="evenodd" clip-rule="evenodd" d="M15.98 0H48v7.962L36.029 15.98H48V24H16L8.02 12.029V24H0V0h8.02l7.96 12.029V0zM24 8.02v7.96l12.029-7.96H24z" fill="currentColor" display="var(--is-visible--only-desktop)"/></symbol><symbol id="logo_en"><path d="M155 11.61h6.695l-.932 5.085c-1.356 1.017-5.085 1.525-7.458 1.525-5 0-7.373-2.627-6.779-6.27.678-4.153 3.813-6.272 9.237-6.272 3.898 0 6.102 1.61 6.356 4.068h-4.153c-.339-.932-1.44-1.44-2.627-1.44-2.034 0-3.813 1.355-4.237 3.558-.17 1.102 0 1.95.508 2.543.509.593 1.441.932 2.543.932s2.034-.17 2.712-.424l.169-1.017h-1.525L155 11.61zm24.746 6.44h12.712l.508-2.88h-7.118l8.559-6.356.509-2.797h-12.967l-.508 2.881h7.203l-8.389 6.271-.509 2.882zm-4.322-12.033h-5.763l-7.373 12.034h4.746l4.831-8.729.678 4.746h-2.627l.423 2.796h2.712l.17 1.187h4.745l-2.542-12.034zM86.865 6.017l-2.288 12.034h-5.17l-3.813-7.119-1.356 7.119H69.83l2.203-12.034h5.509l3.474 7.119 1.356-7.119h4.492zm12.288 0H93.39l-7.373 12.034h4.746l4.83-8.729.678 4.746h-2.627l.424 2.796h2.712l.17 1.187h4.745L99.153 6.017zm43.051 0h-5.763l-7.373 12.034h4.746l4.83-8.729.678 4.746h-2.627l.424 2.796h2.712l.169 1.187h4.746l-2.542-12.034zm-36.695 0l-2.288 12.034h4.406l.848-4.576h5.932l.509-2.797h-5.933l.339-1.864h7.289l-.424-2.797h-10.678zm13.135 0l.424 2.797h3.39l-1.78 9.237h4.407l1.78-9.237h4.322l.508-2.797h-13.051zM48 15.972H35.979L48 8.028V0H16v12L7.958 0H0v23.916h16-7.958V12L16 24h32v-8.028zm-24.042 0V7.944h12.02l-12.02 8.028z" fill="currentColor"/></symbol><symbol id="menu"><path d="M16 1H1M16 5H1" stroke="currentColor" fill="none" stroke-width="1.5" stroke-linecap="round"/></symbol><symbol id="mute"><path d="M2 11V3M6 11V3" fill="none" stroke="currentColor" display="var(--is-visible--non-desktop)" stroke-width="1.5" stroke-linecap="round" stroke-linejoin="round"/><path d="M1 13V1M7 13V1" fill="none" stroke="currentColor" display="var(--is-visible--only-desktop)" stroke-width="1.5" stroke-linecap="round" stroke-linejoin="round"/></symbol><symbol id="muted"><path d="M14 21l-8-6H1V7h5l8-6v20z" fill="none" stroke="currentColor" display="var(--is-visible--only-desktop)" stroke-width="1.5" stroke-miterlimit="10" stroke-linecap="round" stroke-linejoin="round"/><path d="M15 17.846l-5.538-4.154H6V8.154h3.462L15 4v13.846zM17.424 13.346c1.384-1.385 1.384-3.53 0-4.915M19.43 15.354a6.226 6.226 0 000-8.792" fill="none" stroke="currentColor" display="var(--is-visible--non-desktop)" stroke-width="1.5" stroke-miterlimit="10" stroke-linecap="round" stroke-linejoin="round"/></symbol><symbol id="pause"><path d="M1 1v12M7 1v12" stroke="currentColor" stroke-width="1.5" stroke-linecap="round" stroke-linejoin="round"/></symbol><symbol id="pin-arrow"><g filter="url(#filter0_d)"><path d="M19.142 19.71c7.81-7.81 20.474-7.81 28.284 0 7.81 7.811 7.81 20.474 0 28.285L33.284 62.137 19.142 47.995c-7.81-7.81-7.81-20.474 0-28.284z" fill="#D00E3D"/></g><circle cx="33" cy="34" r="10" fill="#fff"/><path d="M32 37l3-3-3-3" stroke="#AB052D" stroke-width="1.5" stroke-linecap="round" stroke-linejoin="round"/></symbol><symbol id="pin-logo-center"><path d="M21.5 21.5c11.874-11.874 31.126-11.874 43 0 11.874 11.874 11.874 31.126 0 43L43 86 21.5 64.5c-11.874-11.874-11.874-31.126 0-43z" fill="#AB052D"/><path fill-rule="evenodd" clip-rule="evenodd" d="M37.996 36.487H56.25v4.539l-6.825 4.572h6.825v4.571H38.007l-4.55-6.825v6.825h-4.572V36.487h4.572l4.54 6.857v-6.857zm4.572 4.572v4.539l6.857-4.54h-6.857z" fill="#fff"/></symbol><symbol id="pin-logo"><g filter="url(#filter0_d)"><path d="M19.142 19.142c7.81-7.81 20.474-7.81 28.284 0 7.81 7.81 7.81 20.474 0 28.284L33.284 61.568 19.142 47.427c-7.81-7.81-7.81-20.473 0-28.284z" fill="#D00E3D"/></g><path fill-rule="evenodd" clip-rule="evenodd" d="M14.993 29H27v2.986l-4.49 3.007H27V38H15l-2.993-4.49V38H9v-9h3.007l2.986 4.51V29zM18 32.007v2.986l4.51-2.986H18z" fill="#fff"/></symbol><symbol id="pin"><g filter="url(#filter0_d)"><path d="M12.5 12.5c6.904-6.904 18.096-6.904 25 0 6.904 6.903 6.904 18.096 0 25L25 50 12.5 37.5c-6.904-6.904-6.904-18.097 0-25z" fill="#D00E3D"/></g></symbol><symbol id="play-small"><path d="M10 7l-9 6V1l9 6z" fill="none" stroke="currentColor" stroke-width="1.5" stroke-linecap="round" stroke-linejoin="round"/></symbol><symbol id="play"><path display="var(--is-visible--non-desktop)" fill="none" d="M14 11L2 19V3l12 8z" stroke="currentColor" stroke-width="1.5" stroke-linecap="round" stroke-linejoin="round"/><path display="var(--is-visible--only-desktop)" fill="none" d="M15.4 10.6L1 20.2V1l14.4 9.6z" stroke="currentColor" stroke-width="1.5" stroke-linecap="round" stroke-linejoin="round"/></symbol><symbol id="plus-card"><path d="M5 9V1M1 5h8" stroke="currentColor" fill="none" stroke-width="1.5" stroke-linecap="round" stroke-linejoin="round"/></symbol><symbol id="plus-thin" viewBox="0 0 14 14"><path d="M7 13V1M1 7h12" stroke="currentColor" stroke-width="1.5" stroke-linecap="round" stroke-linejoin="round"/></symbol><symbol id="plus" viewBox="0 0 10 10"><path d="M5 9V1M1 5h8" display="var(--is-visible--only-desktop)" stroke="currentColor" stroke-width="1.5" stroke-linecap="round" stroke-linejoin="round"/><path d="M5 8V2M2 5h6" display="var(--is-visible--non-desktop)" stroke="currentColor" stroke-width="1.5" stroke-linecap="round" stroke-linejoin="round"/></symbol><symbol id="quote"><path fill="currentColor" display="var(--is-visible--only-desktop)" d="M33.48 16.122h-6.342L34 0h-7.382L19.34 15.102V30h14.14V16.122zm-19.34 0H7.799L14.661 0H7.278L0 15.102V30h14.14V16.122z"/><path fill="currentColor" display="var(--is-visible--non-desktop)" d="M27.648 15.748h-4.29L28 5h-4.994l-4.923 10.068V25h9.565v-9.252zm-13.082 0h-4.29L14.916 5H9.924L5 15.068V25h9.566v-9.252z"/></symbol><symbol id="safari"><path d="M30 60c16.569 0 30-13.431 30-30C60 13.431 46.569 0 30 0 13.431 0 0 13.431 0 30c0 16.569 13.431 30 30 30z" fill="#fff"/><path d="M26.25 26.25l-15 22.5 22.5-15-7.5-7.5z" fill="#2B3944"/><path opacity=".5" d="M26.25 26.25l7.5 7.5 15-22.5-22.5 15z" fill="#2B3944"/></symbol><symbol id="search"><path d="M1 13l3.8-3.8M13 5.8a4.8 4.8 0 11-9.6 0 4.8 4.8 0 019.6 0z" fill="none" stroke="currentColor" stroke-width="1.5" stroke-linecap="round" stroke-linejoin="round"/></symbol><symbol id="star" viewBox="0 0 96 96"><path fill-rule="evenodd" clip-rule="evenodd" d="M48 8.72l12.482 25.293 27.91 4.055-20.196 19.687 4.768 27.797L48 72.428 23.036 85.552l4.768-27.797L7.607 38.068l27.911-4.055L48 8.72zm0 18.077l-7.17 14.528-16.03 2.33 11.6 11.307-2.739 15.966 14.34-7.538 14.338 7.538-2.738-15.966 11.6-11.308-16.031-2.33L48 26.799z" fill="currentColor"/></symbol><symbol id="success"><circle cx="30" cy="30" r="29.5" stroke="currentColor" fill="none"/><path d="M22.5 30.478L28.026 35l9.474-8" stroke="currentColor" fill="none" stroke-width="1.5" stroke-linecap="round" stroke-linejoin="round"/></symbol><symbol id="unmute"><path d="M14 21l-8-6H1V7h5l8-6v20zM17.5 14.5c2-2 2-5.1 0-7.1M20.4 17.4c3.5-3.5 3.5-9.2 0-12.7" fill="none" stroke="currentColor" display="var(--is-visible--only-desktop)" stroke-width="1.5" stroke-miterlimit="10" stroke-linecap="round" stroke-linejoin="round"/><path d="M15 17.846l-5.538-4.154H6V8.154h3.462L15 4v13.846zM17.424 13.346c1.384-1.385 1.384-3.53 0-4.915M19.43 15.354a6.226 6.226 0 000-8.792" fill="none" stroke="currentColor" display="var(--is-visible--non-desktop)" stroke-width="1.5" stroke-miterlimit="10" stroke-linecap="round" stroke-linejoin="round"/></symbol><symbol id="vk"><path fill-rule="evenodd" clip-rule="evenodd" d="M13.07 0H6.93C1.327 0 0 1.327 0 6.93v6.14C0 18.673 1.327 20 6.93 20h6.14c5.603 0 6.93-1.327 6.93-6.93V6.93C20 1.327 18.66 0 13.07 0zm3.077 14.27h-1.454c-.55 0-.72-.438-1.708-1.44-.86-.833-1.242-.946-1.454-.946-.296 0-.38.085-.38.494v1.313c0 .353-.114.564-1.045.564-1.539 0-3.246-.931-4.446-2.667-1.807-2.54-2.3-4.446-2.3-4.841 0-.212.084-.41.493-.41h1.454c.367 0 .508.17.65.565.72 2.075 1.919 3.895 2.413 3.895.183 0 .268-.084.268-.55V8.102c-.056-.988-.579-1.073-.579-1.426 0-.17.141-.339.367-.339h2.287c.31 0 .423.17.423.537v2.893c0 .31.141.424.226.424.184 0 .339-.113.678-.452 1.044-1.172 1.792-2.978 1.792-2.978.099-.212.268-.41.635-.41h1.454c.438 0 .536.226.438.537-.184.847-1.962 3.359-1.962 3.359-.156.254-.212.367 0 .65.155.211.663.649 1.002 1.044.62.705 1.1 1.298 1.228 1.708.14.409-.07.62-.48.62z" fill="currentColor"/></symbol><symbol id="youtube"><path fill-rule="evenodd" clip-rule="evenodd" d="M6 0a6 6 0 00-6 6v8a6 6 0 006 6h8a6 6 0 006-6V6a6 6 0 00-6-6H6zm2 13.464L14 10 8 6.536v6.928z" fill="currentColor"/></symbol><symbol id="zoom-in"><path d="M7 11V3M3 7h8" display="var(--is-visible--non-desktop)" stroke="currentColor" fill="none" stroke-width="1.5" stroke-linecap="round" stroke-linejoin="round"/><path d="M7 13V1M1 7h12" display="var(--is-visible--only-desktop)" stroke="currentColor" fill="none" stroke-width="1.5" stroke-linecap="round" stroke-linejoin="round"/></symbol><symbol id="zoom-out"><path d="M1 1h12" stroke="currentColor" stroke-width="1.5" stroke-linecap="round" stroke-linejoin="round"/></symbol></svg>